<?xml version="1.0" encoding="UTF-8"?>
<!--Generator: Apple Native CoreSVG 123-->
<!DOCTYPE svg
PUBLIC "-//W3C//DTD SVG 1.1//EN"
       "http://www.w3.org/Graphics/SVG/1.1/DTD/svg11.dtd">
<svg version="1.1" xmlns="http://www.w3.org/2000/svg" xmlns:xlink="http://www.w3.org/1999/xlink" width="200" height="100">
 <!--glyph: "uni10019B.medium", point size: 100.000000, font version: "Version 15.0d7e11", template writer version: "5"-->
  <g id="Medium-M" transform="matrix(1 0 0 1 0 82)">
   <path d="M 100.488 10.4492 C 111.035 10.4492 116.553 5.41992 116.553 -5.0293 L 116.553 -64.8926 C 116.553 -75.3906 111.035 -80.8105 100.488 -80.8105 L 58.252 -80.8105 C 51.6113 -80.8105 46.875 -79.1992 42.4316 -74.3652 L 14.8926 -45.0684 C 11.3281 -41.1621 9.96094 -38.3301 9.96094 -35.2539 C 9.96094 -32.1777 11.3281 -29.2969 14.8926 -25.4395 L 42.4805 3.71094 C 46.9238 8.54492 51.6602 10.4004 58.3008 10.4004 Z M 99.8535 0.732422 L 57.8613 0.732422 C 54.4922 0.732422 52.2949 -0.146484 49.9023 -2.63672 L 22.5098 -31.5918 C 21.0938 -33.1055 20.6543 -34.1309 20.6543 -35.2539 C 20.6543 -36.377 21.1426 -37.4023 22.5098 -38.916 L 49.8535 -67.9688 C 52.1973 -70.459 54.4922 -71.0938 57.8125 -71.0938 L 99.8535 -71.0938 C 104.346 -71.0938 106.836 -68.75 106.836 -64.0137 L 106.836 -6.34766 C 106.836 -1.61133 104.346 0.732422 99.8535 0.732422 Z M 88.0859 -14.8926 C 90.5273 -14.8926 92.4805 -16.8945 92.4805 -19.2871 C 92.4805 -20.5078 92.041 -21.5332 91.1621 -22.4121 L 78.3691 -35.2539 L 91.1621 -48.0469 C 92.041 -48.9746 92.4805 -49.9512 92.4805 -51.1719 C 92.4805 -53.6621 90.4785 -55.6641 88.0859 -55.6641 C 86.8652 -55.6641 85.8398 -55.2246 84.9609 -54.2969 L 72.1191 -41.4551 L 59.2773 -54.2969 C 58.3984 -55.2246 57.373 -55.6641 56.1523 -55.6641 C 53.7598 -55.6641 51.7578 -53.6133 51.7578 -51.1719 C 51.7578 -49.9512 52.1973 -48.9746 53.0762 -48.0469 L 65.8691 -35.2539 L 53.0762 -22.4121 C 52.1973 -21.5332 51.7578 -20.5078 51.7578 -19.2871 C 51.7578 -16.8945 53.7109 -14.8926 56.1523 -14.8926 C 57.4219 -14.8926 58.3984 -15.332 59.2285 -16.1621 L 72.1191 -29.1016 L 85.0098 -16.1621 C 85.8398 -15.2832 86.8164 -14.8926 88.0859 -14.8926 Z"/>
  </g>
</svg>
